<mxfile host="65bd71144e">
    <diagram id="H9m8d8st6nDVXjEdukmi" name="Page-1">
        <mxGraphModel dx="1820" dy="833" grid="1" gridSize="10" guides="1" tooltips="1" connect="1" arrows="1" fold="1" page="0" pageScale="1" pageWidth="827" pageHeight="1169" background="none" math="0" shadow="0">
            <root>
                <mxCell id="0"/>
                <mxCell id="1" parent="0"/>
                <mxCell id="gntVJ8dgjInROj-hFV2t-13" style="edgeStyle=orthogonalEdgeStyle;rounded=1;orthogonalLoop=1;jettySize=auto;html=1;exitX=0.5;exitY=1;exitDx=0;exitDy=0;entryX=0.5;entryY=0;entryDx=0;entryDy=0;entryPerimeter=0;labelBackgroundColor=none;fontColor=default;strokeColor=#F7F7F7;labelBorderColor=none;shadow=0;sketch=0;" parent="1" source="gntVJ8dgjInROj-hFV2t-1" target="gntVJ8dgjInROj-hFV2t-12" edge="1">
                    <mxGeometry relative="1" as="geometry"/>
                </mxCell>
                <mxCell id="gntVJ8dgjInROj-hFV2t-1" value="&lt;p style=&quot;line-height: 1;&quot;&gt;Input of Keysize&lt;/p&gt;" style="shape=parallelogram;html=1;strokeWidth=2;perimeter=parallelogramPerimeter;whiteSpace=wrap;rounded=0;arcSize=12;size=0.23;labelBackgroundColor=none;fontColor=#FFFFFF;fillColor=#4A4A4A;labelBorderColor=none;shadow=1;" parent="1" vertex="1">
                    <mxGeometry x="87" y="200" width="130" height="60" as="geometry"/>
                </mxCell>
                <mxCell id="gntVJ8dgjInROj-hFV2t-6" style="edgeStyle=orthogonalEdgeStyle;rounded=1;orthogonalLoop=1;jettySize=auto;html=1;exitX=0.5;exitY=1;exitDx=0;exitDy=0;exitPerimeter=0;entryX=0;entryY=0.5;entryDx=0;entryDy=0;entryPerimeter=0;labelBackgroundColor=none;fontColor=default;strokeColor=#F7F7F7;labelBorderColor=none;shadow=0;sketch=0;" parent="1" source="gntVJ8dgjInROj-hFV2t-3" target="gntVJ8dgjInROj-hFV2t-5" edge="1">
                    <mxGeometry relative="1" as="geometry"/>
                </mxCell>
                <mxCell id="gntVJ8dgjInROj-hFV2t-3" value="&lt;p style=&quot;line-height: 1;&quot;&gt;Start&lt;/p&gt;" style="strokeWidth=2;html=1;shape=mxgraph.flowchart.start_1;whiteSpace=wrap;rounded=0;labelBackgroundColor=none;fontColor=#FFFFFF;fillColor=#4A4A4A;labelBorderColor=none;shadow=1;" parent="1" vertex="1">
                    <mxGeometry x="12" y="20" width="100" height="60" as="geometry"/>
                </mxCell>
                <mxCell id="gntVJ8dgjInROj-hFV2t-7" value="" style="edgeStyle=orthogonalEdgeStyle;rounded=1;orthogonalLoop=1;jettySize=auto;html=1;labelBackgroundColor=none;fontColor=default;strokeColor=#F7F7F7;labelBorderColor=none;shadow=0;sketch=0;" parent="1" source="gntVJ8dgjInROj-hFV2t-5" target="gntVJ8dgjInROj-hFV2t-1" edge="1">
                    <mxGeometry relative="1" as="geometry"/>
                </mxCell>
                <mxCell id="gntVJ8dgjInROj-hFV2t-5" value="&lt;p style=&quot;line-height: 1;&quot;&gt;Display start information&lt;/p&gt;" style="strokeWidth=2;html=1;shape=mxgraph.flowchart.display;whiteSpace=wrap;rounded=0;labelBackgroundColor=none;fontColor=#FFFFFF;fillColor=#4A4A4A;labelBorderColor=none;shadow=1;" parent="1" vertex="1">
                    <mxGeometry x="102" y="100" width="100" height="60" as="geometry"/>
                </mxCell>
                <mxCell id="gntVJ8dgjInROj-hFV2t-21" style="edgeStyle=orthogonalEdgeStyle;rounded=1;orthogonalLoop=1;jettySize=auto;html=1;exitX=0.5;exitY=1;exitDx=0;exitDy=0;entryX=0.5;entryY=0;entryDx=0;entryDy=0;entryPerimeter=0;labelBackgroundColor=none;fontColor=default;strokeColor=#F7F7F7;labelBorderColor=none;shadow=0;sketch=0;" parent="1" source="gntVJ8dgjInROj-hFV2t-8" target="gntVJ8dgjInROj-hFV2t-20" edge="1">
                    <mxGeometry relative="1" as="geometry"/>
                </mxCell>
                <mxCell id="gntVJ8dgjInROj-hFV2t-8" value="&lt;p style=&quot;line-height: 1;&quot;&gt;Input of Running mode&lt;/p&gt;" style="shape=parallelogram;html=1;strokeWidth=2;perimeter=parallelogramPerimeter;whiteSpace=wrap;rounded=0;arcSize=12;size=0.23;labelBackgroundColor=none;fontColor=#FFFFFF;fillColor=#4A4A4A;labelBorderColor=none;shadow=1;" parent="1" vertex="1">
                    <mxGeometry x="59.5" y="470" width="185" height="60" as="geometry"/>
                </mxCell>
                <mxCell id="gntVJ8dgjInROj-hFV2t-17" style="edgeStyle=orthogonalEdgeStyle;rounded=1;orthogonalLoop=1;jettySize=auto;html=1;exitX=0;exitY=0.5;exitDx=0;exitDy=0;exitPerimeter=0;entryX=0;entryY=0.5;entryDx=0;entryDy=0;labelBackgroundColor=none;fontColor=default;strokeColor=#F7F7F7;labelBorderColor=none;shadow=0;sketch=0;" parent="1" source="gntVJ8dgjInROj-hFV2t-12" target="gntVJ8dgjInROj-hFV2t-1" edge="1">
                    <mxGeometry relative="1" as="geometry">
                        <Array as="points">
                            <mxPoint x="32" y="350"/>
                            <mxPoint x="32" y="230"/>
                        </Array>
                    </mxGeometry>
                </mxCell>
                <mxCell id="gntVJ8dgjInROj-hFV2t-18" value="No" style="edgeLabel;html=1;align=center;verticalAlign=middle;resizable=0;points=[];rounded=0;labelBackgroundColor=default;fontColor=#FFFFFF;" parent="gntVJ8dgjInROj-hFV2t-17" vertex="1" connectable="0">
                    <mxGeometry x="0.1233" relative="1" as="geometry">
                        <mxPoint y="16" as="offset"/>
                    </mxGeometry>
                </mxCell>
                <mxCell id="gntVJ8dgjInROj-hFV2t-19" value="Yes" style="edgeStyle=orthogonalEdgeStyle;rounded=1;orthogonalLoop=1;jettySize=auto;html=1;exitX=0.5;exitY=1;exitDx=0;exitDy=0;exitPerimeter=0;entryX=0.5;entryY=0;entryDx=0;entryDy=0;labelBackgroundColor=default;fontColor=default;strokeColor=#F7F7F7;labelBorderColor=none;shadow=0;sketch=0;" parent="1" source="gntVJ8dgjInROj-hFV2t-12" target="gntVJ8dgjInROj-hFV2t-8" edge="1">
                    <mxGeometry x="-0.1429" relative="1" as="geometry">
                        <Array as="points">
                            <mxPoint x="152" y="430"/>
                            <mxPoint x="152" y="430"/>
                        </Array>
                        <mxPoint as="offset"/>
                    </mxGeometry>
                </mxCell>
                <mxCell id="gntVJ8dgjInROj-hFV2t-12" value="&lt;p style=&quot;line-height: 1;&quot;&gt;Allowed size?&lt;/p&gt;" style="strokeWidth=2;html=1;shape=mxgraph.flowchart.decision;whiteSpace=wrap;rounded=0;labelBackgroundColor=none;fontColor=#FFFFFF;fillColor=#4A4A4A;labelBorderColor=none;shadow=1;" parent="1" vertex="1">
                    <mxGeometry x="102" y="300" width="100" height="100" as="geometry"/>
                </mxCell>
                <mxCell id="gntVJ8dgjInROj-hFV2t-22" value="No" style="edgeStyle=orthogonalEdgeStyle;rounded=1;orthogonalLoop=1;jettySize=auto;html=1;exitX=0;exitY=0.5;exitDx=0;exitDy=0;exitPerimeter=0;entryX=0;entryY=0.5;entryDx=0;entryDy=0;labelBackgroundColor=#2A2A2A;fontColor=default;strokeColor=#F7F7F7;labelBorderColor=none;shadow=0;sketch=0;" parent="1" source="gntVJ8dgjInROj-hFV2t-20" target="gntVJ8dgjInROj-hFV2t-8" edge="1">
                    <mxGeometry relative="1" as="geometry">
                        <Array as="points">
                            <mxPoint x="32" y="620"/>
                            <mxPoint x="32" y="500"/>
                        </Array>
                    </mxGeometry>
                </mxCell>
                <mxCell id="gntVJ8dgjInROj-hFV2t-23" value="Yes" style="edgeStyle=orthogonalEdgeStyle;rounded=1;orthogonalLoop=1;jettySize=auto;html=1;exitX=0.5;exitY=1;exitDx=0;exitDy=0;exitPerimeter=0;entryX=0.5;entryY=0;entryDx=0;entryDy=0;entryPerimeter=0;strokeColor=#F7F7F7;labelBackgroundColor=default;fontColor=default;labelBorderColor=none;shadow=0;sketch=0;" parent="1" source="gntVJ8dgjInROj-hFV2t-20" target="gntVJ8dgjInROj-hFV2t-24" edge="1">
                    <mxGeometry relative="1" as="geometry">
                        <mxPoint x="152" y="750" as="targetPoint"/>
                    </mxGeometry>
                </mxCell>
                <mxCell id="gntVJ8dgjInROj-hFV2t-20" value="&lt;p style=&quot;line-height: 1;&quot;&gt;Allowed Running Mode?&lt;/p&gt;" style="strokeWidth=2;html=1;shape=mxgraph.flowchart.decision;whiteSpace=wrap;rounded=0;labelBackgroundColor=none;fontColor=#FFFFFF;fillColor=#4A4A4A;labelBorderColor=none;shadow=1;" parent="1" vertex="1">
                    <mxGeometry x="92" y="560" width="120" height="120" as="geometry"/>
                </mxCell>
                <mxCell id="blQwZ5daZIb1DBa3NWW6-3" style="edgeStyle=orthogonalEdgeStyle;rounded=1;orthogonalLoop=1;jettySize=auto;html=1;exitX=0.5;exitY=1;exitDx=0;exitDy=0;exitPerimeter=0;entryX=0.5;entryY=0;entryDx=0;entryDy=0;labelBackgroundColor=none;fontColor=default;strokeColor=#F7F7F7;labelBorderColor=none;shadow=0;sketch=0;" parent="1" source="gntVJ8dgjInROj-hFV2t-24" target="blQwZ5daZIb1DBa3NWW6-2" edge="1">
                    <mxGeometry relative="1" as="geometry"/>
                </mxCell>
                <mxCell id="gntVJ8dgjInROj-hFV2t-24" value="&lt;p style=&quot;line-height: 1;&quot;&gt;Key selection process&lt;/p&gt;" style="strokeWidth=2;html=1;shape=mxgraph.flowchart.loop_limit;whiteSpace=wrap;rounded=0;labelBackgroundColor=none;fontColor=#FFFFFF;fillColor=#4A4A4A;labelBorderColor=none;shadow=1;" parent="1" vertex="1">
                    <mxGeometry x="317" y="30" width="100" height="60" as="geometry"/>
                </mxCell>
                <mxCell id="blQwZ5daZIb1DBa3NWW6-7" value="Option 1" style="edgeStyle=orthogonalEdgeStyle;rounded=1;orthogonalLoop=1;jettySize=auto;html=1;labelBackgroundColor=default;fontColor=default;strokeColor=#F7F7F7;labelBorderColor=none;shadow=0;sketch=0;" parent="1" source="blQwZ5daZIb1DBa3NWW6-2" target="blQwZ5daZIb1DBa3NWW6-6" edge="1">
                    <mxGeometry relative="1" as="geometry">
                        <Array as="points">
                            <mxPoint x="367" y="200"/>
                            <mxPoint x="367" y="200"/>
                        </Array>
                    </mxGeometry>
                </mxCell>
                <mxCell id="blQwZ5daZIb1DBa3NWW6-9" value="Option 2" style="edgeStyle=orthogonalEdgeStyle;rounded=1;orthogonalLoop=1;jettySize=auto;html=1;entryX=0;entryY=0.5;entryDx=0;entryDy=0;labelBackgroundColor=default;fontColor=default;strokeColor=#F7F7F7;labelBorderColor=none;shadow=0;sketch=0;" parent="1" source="blQwZ5daZIb1DBa3NWW6-2" target="blQwZ5daZIb1DBa3NWW6-10" edge="1">
                    <mxGeometry relative="1" as="geometry">
                        <mxPoint x="517" y="150" as="targetPoint"/>
                    </mxGeometry>
                </mxCell>
                <mxCell id="blQwZ5daZIb1DBa3NWW6-2" value="&lt;p style=&quot;line-height: 1;&quot;&gt;Input key mode&lt;/p&gt;" style="shape=parallelogram;html=1;strokeWidth=2;perimeter=parallelogramPerimeter;whiteSpace=wrap;rounded=0;arcSize=12;size=0.23;labelBackgroundColor=none;fontColor=#FFFFFF;fillColor=#4A4A4A;labelBorderColor=none;shadow=1;" parent="1" vertex="1">
                    <mxGeometry x="302" y="120" width="130" height="60" as="geometry"/>
                </mxCell>
                <mxCell id="blQwZ5daZIb1DBa3NWW6-26" style="edgeStyle=orthogonalEdgeStyle;rounded=1;orthogonalLoop=1;jettySize=auto;html=1;exitX=0.5;exitY=1;exitDx=0;exitDy=0;entryX=0.5;entryY=0;entryDx=0;entryDy=0;labelBackgroundColor=none;fontColor=default;strokeColor=#F7F7F7;labelBorderColor=none;shadow=0;sketch=0;" parent="1" source="blQwZ5daZIb1DBa3NWW6-6" target="blQwZ5daZIb1DBa3NWW6-17" edge="1">
                    <mxGeometry relative="1" as="geometry"/>
                </mxCell>
                <mxCell id="blQwZ5daZIb1DBa3NWW6-6" value="&lt;p style=&quot;line-height: 1;&quot;&gt;Generating new key&lt;/p&gt;" style="whiteSpace=wrap;html=1;strokeWidth=2;rounded=0;arcSize=12;labelBackgroundColor=none;fontColor=#FFFFFF;fillColor=#4A4A4A;labelBorderColor=none;shadow=1;" parent="1" vertex="1">
                    <mxGeometry x="307" y="230" width="120" height="60" as="geometry"/>
                </mxCell>
                <mxCell id="blQwZ5daZIb1DBa3NWW6-13" style="edgeStyle=orthogonalEdgeStyle;rounded=0;orthogonalLoop=1;jettySize=auto;html=1;exitX=0.5;exitY=1;exitDx=0;exitDy=0;entryX=0.5;entryY=0;entryDx=0;entryDy=0;entryPerimeter=0;labelBackgroundColor=none;fontColor=#FFFFFF;" parent="1" source="blQwZ5daZIb1DBa3NWW6-10" target="blQwZ5daZIb1DBa3NWW6-12" edge="1">
                    <mxGeometry relative="1" as="geometry"/>
                </mxCell>
                <mxCell id="blQwZ5daZIb1DBa3NWW6-10" value="&lt;p style=&quot;line-height: 1;&quot;&gt;Input key&lt;/p&gt;" style="shape=parallelogram;perimeter=parallelogramPerimeter;whiteSpace=wrap;html=1;fixedSize=1;strokeWidth=2;rounded=0;arcSize=12;labelBackgroundColor=none;fontColor=#FFFFFF;fillColor=#4A4A4A;labelBorderColor=none;shadow=1;" parent="1" vertex="1">
                    <mxGeometry x="500" y="120" width="120" height="60" as="geometry"/>
                </mxCell>
                <mxCell id="blQwZ5daZIb1DBa3NWW6-14" value="No" style="edgeStyle=orthogonalEdgeStyle;rounded=1;orthogonalLoop=1;jettySize=auto;exitX=1;exitY=0.5;exitDx=0;exitDy=0;exitPerimeter=0;entryX=1;entryY=0.5;entryDx=0;entryDy=0;labelBackgroundColor=default;fontColor=default;strokeColor=default;labelBorderColor=none;shadow=0;sketch=0;jumpStyle=none;html=1;" parent="1" source="blQwZ5daZIb1DBa3NWW6-12" target="blQwZ5daZIb1DBa3NWW6-10" edge="1">
                    <mxGeometry x="0.0244" relative="1" as="geometry">
                        <mxPoint x="680" y="260" as="targetPoint"/>
                        <Array as="points">
                            <mxPoint x="660" y="260"/>
                            <mxPoint x="660" y="150"/>
                        </Array>
                        <mxPoint as="offset"/>
                    </mxGeometry>
                </mxCell>
                <mxCell id="blQwZ5daZIb1DBa3NWW6-34" value="Yes" style="edgeStyle=orthogonalEdgeStyle;rounded=1;orthogonalLoop=1;jettySize=auto;html=1;exitX=0.5;exitY=1;exitDx=0;exitDy=0;exitPerimeter=0;entryX=0.5;entryY=0;entryDx=0;entryDy=0;entryPerimeter=0;labelBackgroundColor=default;fontColor=default;strokeColor=#F7F7F7;labelBorderColor=none;shadow=0;sketch=0;" parent="1" source="blQwZ5daZIb1DBa3NWW6-12" target="blQwZ5daZIb1DBa3NWW6-33" edge="1">
                    <mxGeometry relative="1" as="geometry"/>
                </mxCell>
                <mxCell id="blQwZ5daZIb1DBa3NWW6-12" value="&lt;p style=&quot;line-height: 1;&quot;&gt;Match keysize?&lt;/p&gt;" style="strokeWidth=2;html=1;shape=mxgraph.flowchart.decision;whiteSpace=wrap;rounded=0;labelBackgroundColor=none;fontColor=#FFFFFF;fillColor=#4A4A4A;labelBorderColor=none;shadow=1;" parent="1" vertex="1">
                    <mxGeometry x="505" y="205" width="110" height="110" as="geometry"/>
                </mxCell>
                <mxCell id="blQwZ5daZIb1DBa3NWW6-28" style="edgeStyle=orthogonalEdgeStyle;rounded=1;orthogonalLoop=1;jettySize=auto;html=1;exitX=0.5;exitY=1;exitDx=0;exitDy=0;entryX=0.5;entryY=0;entryDx=0;entryDy=0;entryPerimeter=0;labelBackgroundColor=none;fontColor=default;strokeColor=#F7F7F7;labelBorderColor=none;shadow=0;sketch=0;" parent="1" source="blQwZ5daZIb1DBa3NWW6-17" target="blQwZ5daZIb1DBa3NWW6-27" edge="1">
                    <mxGeometry relative="1" as="geometry"/>
                </mxCell>
                <mxCell id="blQwZ5daZIb1DBa3NWW6-17" value="&lt;p style=&quot;line-height: 1;&quot;&gt;&lt;/p&gt;&lt;div&gt;Input key stroage &lt;br&gt;&lt;/div&gt;&lt;div&gt;path&lt;/div&gt;&lt;p&gt;&lt;/p&gt;" style="shape=parallelogram;html=1;strokeWidth=2;perimeter=parallelogramPerimeter;whiteSpace=wrap;rounded=0;arcSize=12;size=0.23;labelBackgroundColor=none;fontColor=#FFFFFF;fillColor=#4A4A4A;labelBorderColor=none;shadow=1;" parent="1" vertex="1">
                    <mxGeometry x="284.5" y="340" width="165" height="60" as="geometry"/>
                </mxCell>
                <mxCell id="blQwZ5daZIb1DBa3NWW6-38" style="edgeStyle=orthogonalEdgeStyle;rounded=1;orthogonalLoop=1;jettySize=auto;html=1;exitX=0.5;exitY=1;exitDx=0;exitDy=0;entryX=0.5;entryY=0;entryDx=0;entryDy=0;entryPerimeter=0;labelBackgroundColor=none;fontColor=default;strokeColor=#F7F7F7;labelBorderColor=none;shadow=0;sketch=0;" parent="1" source="blQwZ5daZIb1DBa3NWW6-25" target="blQwZ5daZIb1DBa3NWW6-37" edge="1">
                    <mxGeometry relative="1" as="geometry"/>
                </mxCell>
                <mxCell id="blQwZ5daZIb1DBa3NWW6-25" value="&lt;p style=&quot;line-height: 1;&quot;&gt;&lt;/p&gt;&lt;div&gt;Input key storage &lt;br&gt;&lt;/div&gt;&lt;div&gt;path &lt;/div&gt;&lt;p&gt;&lt;/p&gt;" style="shape=parallelogram;html=1;strokeWidth=2;perimeter=parallelogramPerimeter;whiteSpace=wrap;rounded=0;arcSize=12;size=0.23;labelBackgroundColor=none;fontColor=#FFFFFF;fillColor=#4A4A4A;labelBorderColor=none;shadow=1;" parent="1" vertex="1">
                    <mxGeometry x="615" y="480" width="155.25" height="60" as="geometry"/>
                </mxCell>
                <mxCell id="blQwZ5daZIb1DBa3NWW6-29" value="No" style="edgeStyle=orthogonalEdgeStyle;rounded=1;orthogonalLoop=1;jettySize=auto;html=1;exitX=1;exitY=0.5;exitDx=0;exitDy=0;exitPerimeter=0;entryX=1;entryY=0.5;entryDx=0;entryDy=0;labelBackgroundColor=default;fontColor=default;strokeColor=#F7F7F7;labelBorderColor=none;shadow=0;sketch=0;" parent="1" source="blQwZ5daZIb1DBa3NWW6-27" target="blQwZ5daZIb1DBa3NWW6-17" edge="1">
                    <mxGeometry relative="1" as="geometry">
                        <Array as="points">
                            <mxPoint x="462" y="510"/>
                            <mxPoint x="462" y="370"/>
                        </Array>
                    </mxGeometry>
                </mxCell>
                <mxCell id="blQwZ5daZIb1DBa3NWW6-31" style="edgeStyle=orthogonalEdgeStyle;rounded=1;orthogonalLoop=1;jettySize=auto;html=1;exitX=0.5;exitY=1;exitDx=0;exitDy=0;exitPerimeter=0;entryX=0.5;entryY=1;entryDx=0;entryDy=0;entryPerimeter=0;labelBackgroundColor=none;fontColor=default;strokeColor=#F7F7F7;labelBorderColor=none;shadow=0;sketch=0;" parent="1" source="blQwZ5daZIb1DBa3NWW6-27" target="blQwZ5daZIb1DBa3NWW6-30" edge="1">
                    <mxGeometry relative="1" as="geometry"/>
                </mxCell>
                <mxCell id="blQwZ5daZIb1DBa3NWW6-27" value="&lt;p style=&quot;line-height: 1.1;&quot;&gt;&lt;/p&gt;&lt;div&gt;Valid system &lt;br&gt;&lt;/div&gt;&lt;div&gt;path?&lt;/div&gt;&lt;p&gt;&lt;/p&gt;" style="strokeWidth=2;html=1;shape=mxgraph.flowchart.decision;whiteSpace=wrap;rounded=0;labelBackgroundColor=none;fontColor=#FFFFFF;fillColor=#4A4A4A;labelBorderColor=none;shadow=1;" parent="1" vertex="1">
                    <mxGeometry x="307" y="450" width="120" height="120" as="geometry"/>
                </mxCell>
                <mxCell id="blQwZ5daZIb1DBa3NWW6-30" value="&lt;p style=&quot;line-height: 1;&quot;&gt;Key selection precess complete&lt;/p&gt;" style="strokeWidth=2;html=1;shape=mxgraph.flowchart.loop_limit;whiteSpace=wrap;rotation=0;horizontal=1;verticalAlign=top;flipV=1;rounded=0;labelBackgroundColor=none;fontColor=#FFFFFF;fillColor=#4A4A4A;labelBorderColor=none;shadow=1;" parent="1" vertex="1">
                    <mxGeometry x="310.5" y="720" width="113" height="70" as="geometry"/>
                </mxCell>
                <mxCell id="blQwZ5daZIb1DBa3NWW6-35" style="edgeStyle=orthogonalEdgeStyle;rounded=1;orthogonalLoop=1;jettySize=auto;html=1;exitX=1;exitY=0.5;exitDx=0;exitDy=0;exitPerimeter=0;entryX=0.5;entryY=0;entryDx=0;entryDy=0;labelBackgroundColor=none;fontColor=default;strokeColor=#F7F7F7;labelBorderColor=none;shadow=0;sketch=0;" parent="1" source="blQwZ5daZIb1DBa3NWW6-33" target="blQwZ5daZIb1DBa3NWW6-25" edge="1">
                    <mxGeometry relative="1" as="geometry"/>
                </mxCell>
                <mxCell id="blQwZ5daZIb1DBa3NWW6-36" value="Yes" style="edgeLabel;html=1;align=center;verticalAlign=middle;resizable=0;points=[];rounded=0;labelBackgroundColor=default;fontColor=#FFFFFF;" parent="blQwZ5daZIb1DBa3NWW6-35" vertex="1" connectable="0">
                    <mxGeometry x="-0.2857" y="-4" relative="1" as="geometry">
                        <mxPoint x="-10" y="-5" as="offset"/>
                    </mxGeometry>
                </mxCell>
                <mxCell id="blQwZ5daZIb1DBa3NWW6-42" value="Yes" style="edgeStyle=orthogonalEdgeStyle;rounded=1;orthogonalLoop=1;jettySize=auto;html=1;exitX=0.5;exitY=1;exitDx=0;exitDy=0;exitPerimeter=0;entryX=0.5;entryY=1;entryDx=0;entryDy=0;entryPerimeter=0;labelBackgroundColor=default;fontColor=default;strokeColor=#F7F7F7;labelBorderColor=none;shadow=0;sketch=0;" parent="1" source="blQwZ5daZIb1DBa3NWW6-33" target="blQwZ5daZIb1DBa3NWW6-30" edge="1">
                    <mxGeometry x="0.5843" y="-30" relative="1" as="geometry">
                        <Array as="points">
                            <mxPoint x="560" y="630"/>
                            <mxPoint x="367" y="630"/>
                        </Array>
                        <mxPoint x="30" y="-30" as="offset"/>
                    </mxGeometry>
                </mxCell>
                <mxCell id="blQwZ5daZIb1DBa3NWW6-43" value="No" style="edgeLabel;html=1;align=center;verticalAlign=middle;resizable=0;points=[];rounded=0;labelBackgroundColor=default;fontColor=#FFFFFF;" parent="blQwZ5daZIb1DBa3NWW6-42" vertex="1" connectable="0">
                    <mxGeometry x="-0.0069" relative="1" as="geometry">
                        <mxPoint x="65" y="-70" as="offset"/>
                    </mxGeometry>
                </mxCell>
                <mxCell id="blQwZ5daZIb1DBa3NWW6-33" value="&lt;p style=&quot;line-height: 1;&quot;&gt;Should key be stored?&lt;/p&gt;" style="strokeWidth=2;html=1;shape=mxgraph.flowchart.decision;whiteSpace=wrap;rounded=0;labelBackgroundColor=none;fontColor=#FFFFFF;fillColor=#4A4A4A;labelBorderColor=none;shadow=1;" parent="1" vertex="1">
                    <mxGeometry x="505" y="370" width="110" height="110" as="geometry"/>
                </mxCell>
                <mxCell id="blQwZ5daZIb1DBa3NWW6-39" value="No" style="edgeStyle=orthogonalEdgeStyle;rounded=1;orthogonalLoop=1;jettySize=auto;html=1;exitX=1;exitY=0.5;exitDx=0;exitDy=0;exitPerimeter=0;entryX=1;entryY=0.5;entryDx=0;entryDy=0;labelBackgroundColor=default;fontColor=default;strokeColor=#F7F7F7;labelBorderColor=none;shadow=0;sketch=0;" parent="1" source="blQwZ5daZIb1DBa3NWW6-37" target="blQwZ5daZIb1DBa3NWW6-25" edge="1">
                    <mxGeometry relative="1" as="geometry">
                        <Array as="points">
                            <mxPoint x="795" y="640"/>
                            <mxPoint x="795" y="510"/>
                        </Array>
                    </mxGeometry>
                </mxCell>
                <mxCell id="blQwZ5daZIb1DBa3NWW6-40" style="edgeStyle=orthogonalEdgeStyle;rounded=1;orthogonalLoop=1;jettySize=auto;html=1;exitX=0.5;exitY=1;exitDx=0;exitDy=0;exitPerimeter=0;entryX=0.5;entryY=1;entryDx=0;entryDy=0;entryPerimeter=0;labelBackgroundColor=none;fontColor=default;strokeColor=#F7F7F7;labelBorderColor=none;shadow=0;sketch=0;" parent="1" source="blQwZ5daZIb1DBa3NWW6-37" target="blQwZ5daZIb1DBa3NWW6-30" edge="1">
                    <mxGeometry relative="1" as="geometry">
                        <Array as="points">
                            <mxPoint x="693" y="700"/>
                            <mxPoint x="367" y="700"/>
                        </Array>
                    </mxGeometry>
                </mxCell>
                <mxCell id="blQwZ5daZIb1DBa3NWW6-41" value="Yes" style="edgeLabel;html=1;align=center;verticalAlign=middle;resizable=0;points=[];rounded=0;labelBackgroundColor=default;fontColor=#FFFFFF;" parent="blQwZ5daZIb1DBa3NWW6-40" vertex="1" connectable="0">
                    <mxGeometry x="-0.2691" relative="1" as="geometry">
                        <mxPoint x="-34" y="-1" as="offset"/>
                    </mxGeometry>
                </mxCell>
                <mxCell id="blQwZ5daZIb1DBa3NWW6-37" value="&lt;div&gt;Valid system&lt;/div&gt;&lt;div style=&quot;line-height: 1;&quot;&gt;path?&lt;/div&gt;" style="strokeWidth=2;html=1;shape=mxgraph.flowchart.decision;whiteSpace=wrap;rounded=0;labelBackgroundColor=none;fontColor=#FFFFFF;fillColor=#4A4A4A;labelBorderColor=none;shadow=1;" parent="1" vertex="1">
                    <mxGeometry x="638.63" y="585" width="108" height="110" as="geometry"/>
                </mxCell>
            </root>
        </mxGraphModel>
    </diagram>
</mxfile>